<?xml version="1.0" standalone="no"?>
<!DOCTYPE svg PUBLIC "-//W3C//DTD SVG 20010904//EN"
 "http://www.w3.org/TR/2001/REC-SVG-20010904/DTD/svg10.dtd">
<svg version="1.0" xmlns="http://www.w3.org/2000/svg"
 width="680.000000pt" height="136.000000pt" viewBox="0 0 680.000000 136.000000"
 preserveAspectRatio="xMidYMid meet">
<metadata>
Created by potrace 1.16, written by Peter Selinger 2001-2019
</metadata>
<g transform="translate(0.000000,136.000000) scale(0.100000,-0.100000)"
fill="#000000" stroke="none">
<path d="M585 1121 l-79 -239 -125 -6 c-251 -12 -354 -21 -357 -31 -2 -5 82
-74 185 -153 l189 -143 -69 -236 c-38 -130 -69 -240 -69 -245 0 -20 38 2 220
131 l195 138 192 -139 c106 -76 197 -138 204 -138 15 0 12 11 -64 272 l-64
217 188 143 c104 79 189 148 189 154 0 8 -43 14 -127 18 -71 3 -180 9 -243 12
l-115 6 -74 239 c-41 131 -79 239 -85 239 -7 0 -47 -108 -91 -239z"/>
<path d="M1945 1121 l-79 -239 -125 -6 c-251 -12 -354 -21 -357 -31 -2 -5 82
-74 185 -153 l189 -143 -69 -236 c-38 -130 -69 -240 -69 -245 0 -20 38 2 220
131 l195 138 192 -139 c106 -76 197 -138 204 -138 15 0 12 11 -64 272 l-64
217 188 143 c104 79 189 148 189 154 0 8 -43 14 -127 18 -71 3 -180 9 -243 12
l-115 6 -74 239 c-41 131 -79 239 -85 239 -7 0 -47 -108 -91 -239z"/>
<path d="M3315 1121 l-79 -239 -125 -6 c-251 -12 -354 -21 -357 -31 -2 -5 82
-74 185 -153 l189 -143 -69 -236 c-38 -130 -69 -240 -69 -245 0 -20 38 2 220
131 l195 138 192 -139 c106 -76 197 -138 204 -138 15 0 12 11 -64 272 l-64
217 188 143 c104 79 189 148 189 154 0 8 -43 14 -127 18 -71 3 -180 9 -243 12
l-115 6 -74 239 c-41 131 -79 239 -85 239 -7 0 -47 -108 -91 -239z"/>
<path d="M4684 1116 l-78 -234 -126 -6 c-250 -12 -353 -21 -356 -31 -2 -5 82
-74 185 -153 l189 -143 -69 -236 c-38 -130 -69 -240 -69 -245 0 -20 38 2 220
131 l195 138 192 -139 c106 -76 197 -138 204 -138 15 0 12 11 -64 272 l-64
217 188 143 c104 79 189 148 189 154 0 8 -43 14 -127 18 -71 3 -180 9 -243 12
l-115 6 -28 92 c-100 321 -119 376 -132 376 -9 0 -40 -80 -91 -234z m325 -270
c53 -3 132 -6 176 -7 44 0 100 -4 125 -7 l45 -7 -170 -129 c-94 -71 -172 -130
-174 -132 -1 -1 18 -76 44 -166 26 -90 56 -191 65 -225 l18 -61 -179 129 c-98
71 -181 129 -184 129 -4 0 -221 -150 -327 -227 l-47 -34 14 48 c80 265 117
406 108 411 -5 4 -83 63 -173 132 l-164 125 44 7 c25 3 81 7 125 7 44 1 123 4
176 7 l95 7 74 223 74 223 70 -223 69 -223 96 -7z"/>
<path d="M6054 1116 l-78 -234 -126 -6 c-250 -12 -353 -21 -356 -31 -2 -5 82
-74 185 -153 l189 -143 -69 -236 c-38 -130 -69 -240 -69 -245 0 -20 38 2 220
131 l195 138 192 -139 c106 -76 197 -138 204 -138 15 0 12 11 -64 272 l-64
217 188 143 c104 79 189 148 189 154 0 8 -43 14 -127 18 -71 3 -180 9 -243 12
l-115 6 -28 92 c-100 321 -119 376 -132 376 -9 0 -40 -80 -91 -234z m325 -270
c53 -3 132 -6 176 -7 44 0 100 -4 125 -7 l45 -7 -170 -129 c-94 -71 -172 -130
-174 -132 -1 -1 18 -76 44 -166 26 -90 56 -191 65 -225 l18 -61 -179 129 c-98
71 -181 129 -184 129 -4 0 -221 -150 -327 -227 l-47 -34 14 48 c80 265 117
406 108 411 -5 4 -83 63 -173 132 l-164 125 44 7 c25 3 81 7 125 7 44 1 123 4
176 7 l95 7 74 223 74 223 70 -223 69 -223 96 -7z"/>
</g>
</svg>
